# xmcd
#
# Track frame offsets: 
#        150
#        14722
#        29697
#        43525
#        56825
#        77552
#        93132
#        108820
#        119955
#        131182
#        146972
#        158082
#        167615
#        180012
#        194417
#        209060
#        224805
#        241252
#        259137
#        271590
#
# Disc length: 3834 seconds
#
# Revision: 2
# Processed by: cddbd v1.5.2PL0 Copyright (c) Steve Scherf et al.
# Submitted via: ExactAudioCopy v1.0b3
#
DISCID=2c0ef814
DTITLE=CAROL - ゴールデン・ヒッツ・マーク2
DYEAR=1996
DGENRE=JPop
TTITLE0=緊急電話
TTITLE1=ジョニー・B・グッド
TTITLE2=ズッコケ娘
TTITLE3=素敵な天使
TTITLE4=ふられた男
TTITLE5=ワン・ナイト
TTITLE6=ヘイ・ママ・ロックン・ロール
TTITLE7=トゥティー・フルティー
TTITLE8=娘(クーニャン)
TTITLE9=変わり得ぬ愛
TTITLE10=ラスト・チャンス
TTITLE11=グッド・オールド・ロックン・ロール
TTITLE12=夢の中だけ
TTITLE13=ビブロス・ピープル
TTITLE14=カモン・ベイビー
TTITLE15=悪魔の贈り物
TTITLE16=甘い日々
TTITLE17=雨のしずく
TTITLE18=カンサス・シティー
TTITLE19=Carol(子供達に夢を)
EXTD=
EXTT0=
EXTT1=
EXTT2=
EXTT3=
EXTT4=
EXTT5=
EXTT6=
EXTT7=
EXTT8=
EXTT9=
EXTT10=
EXTT11=
EXTT12=
EXTT13=
EXTT14=
EXTT15=
EXTT16=
EXTT17=
EXTT18=
EXTT19=
PLAYORDER=
